<?xml version="1.0" encoding="UTF-8"?>
<!DOCTYPE svg PUBLIC "-//W3C//DTD SVG 1.1//EN" "http://www.w3.org/Graphics/SVG/1.1/DTD/svg11.dtd">
<!-- Creator: CorelDRAW -->
<svg xmlns="http://www.w3.org/2000/svg" xml:space="preserve" width="100.171mm" height="58.4976mm" version="1.1" style="shape-rendering:geometricPrecision; text-rendering:geometricPrecision; image-rendering:optimizeQuality; fill-rule:evenodd; clip-rule:evenodd"
viewBox="0 0 10017 5850"
 xmlns:xlink="http://www.w3.org/1999/xlink">
 <defs>
  <style type="text/css">
   <![CDATA[
    .fil42 {fill:#FFFFF3;fill-rule:nonzero}
    .fil41 {fill:#FFFFC2;fill-rule:nonzero}
    .fil19 {fill:#FFF5CC;fill-rule:nonzero}
    .fil37 {fill:#FFF3CC;fill-rule:nonzero}
    .fil28 {fill:#FFEB99;fill-rule:nonzero}
    .fil34 {fill:#FFE9B3;fill-rule:nonzero}
    .fil14 {fill:#FFE6B3;fill-rule:nonzero}
    .fil6 {fill:#F5D7AE;fill-rule:nonzero}
    .fil18 {fill:#F3CD9A;fill-rule:nonzero}
    .fil27 {fill:#FFD980;fill-rule:nonzero}
    .fil30 {fill:#FFD266;fill-rule:nonzero}
    .fil12 {fill:#F3C09A;fill-rule:nonzero}
    .fil15 {fill:#E6B380;fill-rule:nonzero}
    .fil43 {fill:#FFCC80;fill-rule:nonzero}
    .fil24 {fill:#FFC266;fill-rule:nonzero}
    .fil23 {fill:#D99A67;fill-rule:nonzero}
    .fil25 {fill:#FFB84D;fill-rule:nonzero}
    .fil21 {fill:#FFB05F;fill-rule:nonzero}
    .fil22 {fill:#EB9A5D;fill-rule:nonzero}
    .fil29 {fill:#FFA64D;fill-rule:nonzero}
    .fil26 {fill:#FFA466;fill-rule:nonzero}
    .fil5 {fill:#677167;fill-rule:nonzero}
    .fil7 {fill:#DCCAB9;fill-rule:nonzero}
    .fil4 {fill:#798579;fill-rule:nonzero}
    .fil31 {fill:#BDB699;fill-rule:nonzero}
    .fil17 {fill:#E6FAFA;fill-rule:nonzero}
    .fil36 {fill:#D3E9E4;fill-rule:nonzero}
    .fil33 {fill:#E6FFE6;fill-rule:nonzero}
    .fil38 {fill:#A7C074;fill-rule:nonzero}
    .fil20 {fill:#DFB992;fill-rule:nonzero}
    .fil3 {fill:#9CB367;fill-rule:nonzero}
    .fil39 {fill:#767834;fill-rule:nonzero}
    .fil10 {fill:#98ACBB;fill-rule:nonzero}
    .fil8 {fill:#A2CFC3;fill-rule:nonzero}
    .fil9 {fill:#94C7BB;fill-rule:nonzero}
    .fil11 {fill:#8AC2B3;fill-rule:nonzero}
    .fil2 {fill:#839779;fill-rule:nonzero}
    .fil13 {fill:#B3F0F0;fill-rule:nonzero}
    .fil40 {fill:#6C835F;fill-rule:nonzero}
    .fil35 {fill:#7BB3A4;fill-rule:nonzero}
    .fil1 {fill:#B3FFFF;fill-rule:nonzero}
    .fil32 {fill:#64B864;fill-rule:nonzero}
    .fil0 {fill:#A2E7F8;fill-rule:nonzero}
    .fil16 {fill:white;fill-rule:nonzero}
   ]]>
  </style>
 </defs>
 <g id="Layer_x0020_1">
  <metadata id="CorelCorpID_0Corel-Layer"/>
  <g id="vc003205.ai">
   <g>
    <g>
     <polygon class="fil0" points="216,1036 216,183 9958,183 9958,1470 1638,2279 "/>
     <path class="fil1" d="M9943 1456l0 -420c0,0 -1317,-493 -2260,-583 -943,-90 -1511,-60 -1332,15 180,75 1197,15 943,284 -254,269 -763,210 -1556,-90 -793,-299 -2215,-359 -2500,-119 -284,239 225,374 390,344 164,-30 -165,-105 -15,-210 149,-104 508,-254 1212,-60 703,195 1227,689 1227,689l3891 150z"/>
     <polygon class="fil2" points="3837,1575 3927,1410 3613,1261 3298,1156 3179,1096 3134,992 3029,947 2879,962 2805,812 2655,722 2505,752 2371,587 2191,557 1727,587 1518,483 1353,557 1174,513 979,423 814,453 575,423 380,318 186,333 186,1680 2341,1650 "/>
     <polygon class="fil3" points="897,491 1047,468 1137,453 1211,483 1279,543 1368,573 1518,550 1653,566 1765,543 1937,588 2064,633 2334,633 2536,812 2394,812 2289,708 2079,685 1900,625 1788,625 1683,693 1511,625 1286,640 1189,550 1107,536 949,603 778,625 650,663 650,573 515,550 411,498 403,379 531,438 688,461 "/>
     <polygon class="fil4" points="2932,1389 2708,1269 2603,1254 2514,1164 2454,1089 2364,1074 2289,1134 2079,1104 1915,1134 1795,1164 1690,1089 1481,985 1256,985 1091,1015 792,820 598,775 553,880 463,955 284,850 209,865 209,1508 2813,1613 "/>
     <path class="fil5" d="M194 1433l7 -209 464 37 195 23 149 0 112 37 90 45 255 -22 209 -23 442 30 337 38 209 0 359 0 127 104c0,0 -389,172 -359,165 30,-8 -2028,-67 -2028,-67l-568 -158z"/>
     <path class="fil3" d="M1525 1074c0,0 60,-210 142,-240 83,-30 180,15 180,15l-75 53 -75 0 38 52 -90 15 -53 67 -22 60 -45 -22z"/>
     <path class="fil5" d="M2393 1021c0,0 60,-321 -90,-448 -149,-128 -351,-75 -351,-75l104 30c0,0 -44,52 -14,59 30,8 209,30 209,30l-90 23c0,0 53,67 82,97 30,30 90,127 98,172 7,45 0,90 0,90l52 22z"/>
     <polygon class="fil6" points="193,1440 492,1426 732,1396 1016,1426 1375,1456 1705,1410 2064,1456 2228,1500 2483,1485 2857,1426 3082,1456 3246,1470 3411,1440 3665,1470 3860,1456 4234,1456 4548,1710 4279,2219 4009,3805 208,3775 "/>
     <polygon class="fil7" points="3979,1830 3366,1800 2992,1755 2707,1740 2318,1770 2079,1785 1795,1800 1615,1845 1465,1874 1345,1934 1361,2039 1540,2144 1540,2219 1600,2309 1869,2413 2079,2533 2034,2623 2034,2683 2214,2743 2513,2802 3426,2922 4324,2249 "/>
     <path class="fil8" d="M2004 2249l-209 -75 0 -270 344 -44 314 0 314 -45 240 -15 179 60 165 14 239 -29 464 -75 135 -60 105 -105 -120 -45 -150 -15 -105 -60 -104 -75 -240 -44 -149 -45 -165 -180c0,0 2439,30 2709,30 269,0 1646,15 1855,45 210,30 853,30 853,30l1257 45 0 2514 -2110 -15 -4564 -1137 -1257 -404z"/>
     <path class="fil9" d="M9951 3985l0 -1826c0,0 -988,30 -1317,-120 -329,-149 -1257,210 -1467,30 -209,-179 -1376,120 -1376,120l-808 -90c0,0 -419,-179 -659,-179 -239,0 -1347,60 -1347,60 0,0 -957,59 -748,149 209,90 658,60 778,120 120,60 689,389 689,389l1406 389 3801 1227 1048 -269z"/>
     <path class="fil10" d="M3441 1186l1361 45 315 -30 823 15 598 15 988 30 584 45 628 45 644 -15 553 -30 0 239 -329 -30 -239 -59 -135 29 -210 75 -553 -104 -419 14 -420 -74c0,0 -210,-30 -285,0 -75,30 285,75 285,75l-105 119 -298 -60 -195 0 -344 -15 -419 -134 -329 -45 -404 -30 -300 75 -464 29 -359 -104 -359 -15 -269 15 -150 -30 -224 0 -120 -60 150 -30z"/>
     <path class="fil11" d="M8379 2952c0,0 -658,-15 -1167,30 -509,45 -718,-239 -973,-255 -254,-14 -628,-59 -449,-134 180,-75 868,-45 389,-135 -479,-90 -928,0 -1197,-45 -269,-45 -539,-164 -763,-164 -225,0 -1093,179 -883,30 209,-150 1197,-240 1541,-195 344,45 838,105 748,15 -89,-90 -30,-135 629,-60 658,75 599,15 943,105 344,89 -359,0 -389,179 -30,180 868,-44 1406,-30 539,16 1123,16 1317,90 195,75 434,225 434,225l-30 628c0,0 120,-15 -538,-194 -659,-180 -360,0 -554,-30 -195,-30 -464,-60 -464,-60z"/>
     <path class="fil12" d="M3845 1545c0,0 -330,-15 -584,-15 -254,0 -494,-15 -599,-30 -104,-15 -1047,30 -1167,0 -120,-30 -823,-30 -927,-30 -105,0 -360,0 -360,0l0 210c0,0 479,0 674,0 194,0 1032,-105 1257,-75 224,30 1122,-15 1316,45 195,60 510,45 554,-30 45,-75 -164,-75 -164,-75z"/>
     <path class="fil13" d="M1899 2159l389 74 479 135 404 45c0,0 494,60 569,60 75,0 404,-90 584,-45 179,45 344,120 643,105 299,-15 808,75 674,135 -135,59 -345,-15 -494,0 -150,15 -270,-30 -359,-45 -90,-15 -210,-60 -225,45 -15,104 539,29 688,104 150,75 374,120 554,120 180,0 494,-60 599,30 104,90 374,194 583,224 210,30 674,75 853,105 180,30 644,-149 868,-45 225,105 195,240 464,270 269,30 419,-30 554,-30 134,0 224,60 224,60l-15 897 -613 375 -1946 -479 -3756 -1377 -853 -374 -269 -60 -195 -105 -269 -60 -225 -134 90 -30z"/>
     <path class="fil14" d="M8237 5705l-8036 0 0 -2843c0,0 262,-45 1234,30 973,75 1490,284 1175,344 -314,60 150,135 718,45 569,-90 1706,180 1706,180l2036 808 1167 1436z"/>
     <path class="fil6" d="M6928 5714c0,0 569,-300 359,-449 -209,-150 -1220,-637 -1056,-742 165,-104 405,-30 315,-179 -90,-150 -704,-449 -1467,-584 -763,-135 -239,-254 -673,-314 -434,-60 -913,-30 -1003,-180 -90,-150 45,-254 -194,-299 -240,-45 -1048,-90 -1003,-195 45,-104 629,-29 629,-29l359 74 284 -30 150 45 104 75 75 120 135 59 150 75 104 0 195 45 269 90 329 -90 315 60 494 45 433 135 539 164 823 389 988 584 434 643 105 479 -2192 9z"/>
     <polygon class="fil15" points="8727,5298 8959,5687 8891,5724 8772,5642 8667,5492 8615,5342 8555,5328 8517,5350 8398,5290 8196,5043 8076,4991 8009,4893 7956,4804 7784,4759 7694,4617 7657,4527 7574,4422 7537,4272 7462,4198 7447,4295 7395,4287 7335,4250 7253,4272 7111,4213 6924,4026 6819,3981 6751,3921 6594,3771 6550,3801 6430,3801 6310,3764 6175,3749 6003,3696 5958,3636 5869,3547 5764,3509 5719,3532 5607,3517 5487,3479 5405,3509 5285,3375 5584,3217 7178,3577 9213,4953 "/>
     <polygon class="fil15" points="5416,3375 5334,3464 5259,3464 5191,3419 5139,3382 5087,3442 5049,3449 4930,3435 4818,3449 4713,3412 4638,3345 4533,3360 4428,3345 4354,3307 4241,3292 4144,3217 4024,3210 3949,3210 3837,3143 3732,3105 3688,3046 3598,3023 3501,2933 3388,2933 3313,2911 3246,2873 3164,2866 3089,2813 3074,2731 3860,2911 4832,3292 5087,3247 "/>
     <polygon class="fil16" points="4548,3266 4400,3281 4345,3286 4196,3251 4077,3214 4039,3161 3912,3184 3792,3116 3755,3056 3740,3004 3628,3027 3553,2967 3508,2885 3424,2898 3347,2874 3261,2847 3179,2840 3138,2815 3089,2802 2992,2735 2909,2675 2827,2668 2722,2645 2670,2600 2565,2585 2475,2563 2408,2443 2333,2443 2236,2443 2154,2443 2072,2428 2019,2353 1952,2331 1877,2286 1772,2249 1720,2181 1742,2099 1712,2054 1727,1972 1779,1942 1847,1912 1899,1934 1839,2046 1869,2114 1862,2174 1944,2211 2012,2226 2109,2256 2154,2301 2199,2353 2281,2353 2505,2413 2610,2496 2730,2466 2865,2518 3029,2555 3156,2608 3231,2653 3328,2638 3493,2645 3598,2697 3673,2668 3830,2727 3949,2832 4114,2825 4324,2855 4458,2885 4541,2967 4601,3034 4623,3154 "/>
     <path class="fil17" d="M9965 3992l-60 -67 -59 -16 -53 8 -45 -45 -45 -37 -52 -15 -60 30 -67 15 -83 -23 -52 8 -45 37 -22 82 -68 15 -60 15 -52 45 8 75 -60 53 -90 7 -105 -45 -52 -52 -97 -45 -8 -75 -75 -60 -89 23 -53 59 -75 -22 -59 -53 -53 -52 -67 -30 -75 30 -90 -22 -45 -60 -75 -60 -89 -45 -60 15 -82 -67 -45 -30 -68 -22 -60 7 -74 0 -98 -90 -45 -7 -119 -15 -90 -15 -52 60 -76 -23 -52 -52 -90 30 -82 -90 -52 -75 -75 23 -52 14 0 83 -98 -45 -67 -68 -82 -14 -23 -113 -52 -44 -68 14 -59 45 -113 -45 -45 -37 -74 23 -60 7 -30 -53 -90 -44 -67 22 -90 -45 -75 15 -97 38 -90 -16 -75 0 -67 23 -112 53 -8 82 382 112 239 0 225 -15 194 255 232 67 165 -105 247 232 314 195 240 142 276 -30 509 583 875 756 390 307 591 15c0,-1729 7,-1736 7,-1736z"/>
     <polygon class="fil16" points="9935,4074 9853,4007 9748,3999 9681,3947 9584,3917 9494,3917 9457,3962 9471,4022 9397,4022 9344,4014 9269,4059 9292,4164 9232,4239 9150,4216 9052,4276 8940,4239 8843,4179 8746,4172 8693,4082 8618,4014 8566,4037 8469,4037 8371,3962 8274,3917 8207,3947 8094,3947 8035,3842 7960,3767 7870,3782 7803,3738 7691,3685 7564,3670 7496,3655 7444,3588 7346,3550 7249,3550 7174,3580 7092,3633 7100,3715 7219,3678 7331,3700 7406,3738 7474,3812 7601,3782 7676,3805 7803,3835 7923,3842 8005,3880 7997,3955 7982,4044 8102,4126 8267,4126 8357,4194 8439,4224 8574,4224 8626,4269 8678,4351 8738,4433 8865,4448 8947,4411 9037,4419 9164,4471 9284,4448 9374,4531 9374,4613 9449,4718 9524,4725 9621,4703 9711,4688 9793,4718 9801,4845 9830,4950 9928,5025 9950,4942 "/>
     <polygon class="fil16" points="9950,3389 9711,3240 9531,3150 9307,3120 9052,3016 8753,2986 8484,2956 8110,2941 7990,2986 7855,3046 7691,3060 7436,3046 7227,3060 7032,3076 6927,3135 7062,3195 7002,3270 7107,3375 7271,3360 7466,3330 7631,3315 7751,3375 8005,3419 8439,3345 8529,3405 8454,3494 8304,3539 8199,3599 8214,3689 8364,3674 8574,3689 8768,3794 8933,3689 9142,3614 9172,3749 9052,3823 9247,3853 9352,3734 9471,3689 9606,3734 9711,3764 9920,3883 9935,3689 "/>
     <polygon class="fil16" points="8910,5702 8850,5649 8813,5552 8738,5500 8671,5417 8663,5320 8641,5245 8596,5230 8521,5275 8439,5253 8357,5193 8274,5088 8229,4999 8154,4946 8110,4909 8042,4804 8005,4752 7893,4759 7795,4699 7743,4594 7743,4505 7661,4430 7638,4310 7578,4243 7518,4183 7444,4138 7361,4160 7324,4198 7227,4190 7100,4123 6995,4041 6957,3951 6882,3943 6815,3913 6718,3846 6681,3764 6636,3696 6561,3622 6494,3629 6501,3726 6374,3741 6254,3696 6157,3712 6022,3659 5992,3547 5947,3449 5895,3390 5812,3405 5685,3449 5543,3457 5453,3457 5378,3487 5334,3412 5274,3397 5214,3412 5147,3330 5087,3315 5027,3397 4997,3449 4885,3479 4802,3390 4720,3390 4668,3412 4571,3382 4473,3307 4391,3210 4473,3143 4571,3165 4608,3128 4638,3060 4720,2978 4802,2948 4945,2971 5027,2993 5109,3068 5131,3128 5154,3195 5221,3195 5281,3218 5341,3180 5438,3240 5528,3292 5573,3248 5618,3128 5730,3120 5812,3173 5842,3225 5917,3240 5992,3225 6082,3262 6074,3307 6082,3367 6149,3442 6239,3509 6306,3449 6418,3427 6538,3449 6606,3487 6643,3554 6718,3562 6823,3592 6912,3644 6957,3726 6980,3786 7077,3801 7204,3779 7317,3779 7376,3883 7361,3958 7421,4003 7496,4003 7593,3899 7698,3891 7803,3936 7855,4018 7803,4145 7833,4220 7952,4220 8005,4175 8065,4265 8124,4258 8147,4362 8237,4392 8319,4325 8401,4332 8461,4332 8514,4392 8544,4452 8544,4594 8611,4572 8693,4602 8783,4654 8835,4632 8888,4542 8925,4475 9075,4505 9157,4572 9202,4729 9127,4811 8993,4856 8947,4976 9030,5036 9127,5073 9180,4969 9217,4879 9329,4894 9389,4946 9411,5036 9419,5148 9337,5223 9284,5305 9352,5440 9427,5507 9449,5567 9449,5612 9636,5664 9681,5717 "/>
     <path class="fil18" d="M4705 4766c0,0 479,240 322,352 -157,112 -397,15 -397,15 0,0 105,-37 128,-150 22,-112 -53,-217 -53,-217z"/>
     <path class="fil18" d="M5012 4759c0,0 224,-15 494,254 269,270 284,389 314,741l-1130 -22c0,0 52,-127 150,-150 97,-23 554,-60 628,-277 75,-217 -112,-359 -239,-419 -127,-60 -217,-127 -217,-127z"/>
     <path class="fil19" d="M4211 3958c0,0 30,-82 360,53 329,134 875,329 620,411 -254,83 -778,-37 -980,30 -202,67 -75,105 83,157 157,53 231,150 231,150 0,0 -89,-60 -314,-105 -224,-45 -553,-97 -374,-224 180,-128 636,-135 636,-135l-292 -239 30 -98z"/>
     <path class="fil20" d="M3822 5720l741 -3 -239 -180 -143 -45 -202 -120 -134 -142 -195 -104 -217 -105 -135 -38 -172 -134 -239 -75 -217 -45 -307 -224 90 -23 112 15 142 -105 75 30 45 8 97 -38 75 8 120 0 164 37 218 -30 261 -22 127 -23 53 -52 105 -8 104 16 143 0 201 7c0,0 120,-15 173,-45 52,-30 45,-97 -15,-127 -60,-30 -434,-23 -434,-23l-741 45 -995 -7 -479 247 479 621 1339 684z"/>
     <path class="fil18" d="M1091 5051l38 90 -38 89c0,0 82,38 82,90 0,52 -44,120 -44,120l-30 82c0,0 15,45 67,30 52,-15 157,-37 202,-75 45,-37 97,-119 97,-119l0 -102 53 -18 119 74c0,0 83,38 75,83 -7,45 -30,150 -30,150l105 82 202 -22c0,0 75,29 120,37 45,7 97,15 127,-8 30,-22 82,-194 82,-194l-269 -277 -636 -292 -187 30 -135 150z"/>
     <polygon class="fil15" points="179,5736 403,5721 612,5702 695,5664 739,5589 755,5455 822,5462 889,5402 934,5290 994,5170 1054,5118 1129,5088 1173,5133 1241,5096 1286,5073 1368,5141 1480,5200 1645,5230 1742,5290 1832,5358 1959,5455 2086,5470 2176,5477 2296,5500 2371,5589 2393,5657 2490,5724 2618,5717 2655,5342 1420,4549 972,4549 209,5003 "/>
     <path class="fil21" d="M1009 4841l90 38 104 -23 165 15 935 -382 240 -29 127 -98 284 -22 300 60 269 0 187 -38 120 -52 105 -30 119 0 165 -8 202 23 104 -37 75 -45 -22 -60 -75 -37 -157 -98 -381 -97 -2814 -120c0,0 -942,-373 -965,-325l0 180 8 209 186 11 -171 124 0 793 800 48z"/>
     <polygon class="fil22" points="1930,4172 2057,4209 2132,4217 2251,4217 2364,4187 2521,4239 2708,4217 2873,4247 3030,4307 3179,4292 3262,4389 3149,4374 2865,4337 2685,4359 2581,4419 2528,4471 2394,4471 2274,4524 1855,4269 1840,4195 "/>
     <polygon class="fil23" points="1398,4258 1331,4332 1308,4407 1271,4489 1278,4572 1286,4706 1293,4782 1271,4886 1286,4946 1361,5058 1488,5148 1809,5268 1884,5320 1944,5365 2072,5417 2176,5440 2273,5462 2363,5522 2460,5582 2558,5724 2625,5724 3074,5702 3119,5485 2618,5096 1720,4407 "/>
     <polygon class="fil24" points="545,3973 635,3913 695,3749 1114,3779 1562,3883 1727,3958 1772,4078 1592,4183 1608,4318 1353,4362 1129,4347 932,4326 575,4288 440,4228 "/>
     <polygon class="fil25" points="1338,4527 1308,4587 1323,4662 1316,4714 1390,4804 1712,5028 1869,5081 2026,5141 2266,5312 2484,5534 2707,5709 3082,5709 3089,5559 1727,4684 1480,4422 1383,4422 "/>
     <polygon class="fil26" points="179,5751 313,5619 388,5567 462,5537 538,5485 582,5365 672,5223 769,5118 852,5088 964,5006 1016,4939 1099,4819 1144,4706 1166,4587 1121,4400 194,4958 "/>
     <polygon class="fil27" points="199,3807 277,3796 334,3831 419,3818 461,3853 528,3852 577,3893 652,3893 686,3946 753,3942 791,4003 813,4069 761,4122 689,4122 645,4167 592,4144 536,4189 468,4167 393,4231 349,4227 292,4279 202,4294 "/>
     <path class="fil27" d="M1381 3781l-12 -116 -59 -4 0 -112 -57 -27 -30 -63c0,0 -66,-32 -90,-23 -44,19 -7,-37 -48,-60 -26,-22 -98,37 -124,15 -30,-19 -23,-70 -56,-64 -19,4 -64,23 -64,23 0,0 -45,-60 -60,-45 -26,26 -56,4 -90,11 -18,4 -60,-15 -60,-15 0,0 -56,-49 -82,-22 -19,18 -49,41 -75,37 -26,19 -64,-9 -86,-30 -19,-17 -53,41 -53,41l-52 -45 -60 23c0,0 8,37 -37,66l8 292c16,18 0,72 18,69 26,-4 47,-21 47,-21l31 44 56 -24c23,5 46,12 67,15l12 39 83 -15 41 45 62 -14 24 55c0,0 77,58 90,30 17,-36 56,-4 96,5l91 51 43 -36 59 51 50 -28 99 47 16 -38 56 27 30 -53 116 -131z"/>
     <polygon class="fil24" points="210,3419 276,3459 328,3436 380,3481 448,3473 519,3515 583,3492 663,3541 729,3537 785,3593 867,3601 950,3609 1010,3669 1092,3683 1100,3729 965,3729 860,3669 792,3691 703,3616 631,3592 568,3571 470,3586 425,3526 343,3556 246,3533 210,3513 "/>
     <polygon class="fil27" points="1293,3786 1375,3741 1383,3629 1495,3636 1525,3502 1645,3509 1705,3449 1802,3502 1877,3427 1967,3487 2035,3434 2117,3479 2215,3434 2297,3502 2395,3472 2499,3554 2567,3509 2664,3576 2747,3592 2786,3660 2852,3622 2921,3682 3017,3629 3108,3711 3159,3659 3227,3730 3309,3666 3378,3754 3444,3719 3537,3779 3631,3726 3646,3801 3796,3756 3948,3824 4073,3824 4135,3906 4315,3973 4374,4011 4426,4116 4351,4161 4277,4108 4193,4161 4127,4086 3984,4131 3911,4070 3738,4086 3634,4123 3477,4093 3350,4086 3237,4108 3095,4108 2968,4063 2886,4108 2754,4048 2661,4100 2564,4078 2469,4131 2357,4078 2155,4124 1958,4086 1832,4161 1711,4086 1576,4048 1466,3978 1391,3970 1309,3955 1315,3869 "/>
     <polygon class="fil27" points="194,4434 246,4397 262,4328 345,4313 435,4234 547,4231 656,4198 718,4210 772,4174 832,4223 907,4193 959,4234 1023,4235 1045,4287 1113,4275 1147,4335 1203,4392 1147,4489 1173,4572 1083,4662 1049,4759 957,4750 918,4819 828,4838 772,4950 734,4950 659,5051 547,5096 528,5186 419,5209 359,5310 262,5314 202,5403 209,5078 "/>
     <polygon class="fil28" points="200,3837 272,3815 324,3848 362,3837 395,3859 429,3837 489,3886 526,3863 564,3897 508,3938 455,3901 414,3912 373,3882 339,3897 305,3863 272,3859 234,3889 193,3878 "/>
     <polygon class="fil27" points="3852,5728 3890,5645 3807,5608 3755,5510 3635,5450 3627,5360 3552,5315 3448,5158 3374,5119 3305,5083 3253,5031 3170,4948 3013,4866 2990,4791 2945,4723 2855,4686 2818,4603 2713,4603 2668,4506 2571,4506 2541,4438 2451,4438 2428,4364 2338,4341 2293,4289 2196,4319 2188,4251 2106,4236 2046,4206 1964,4229 1898,4198 1784,4184 1701,4169 1574,4206 1473,4180 1374,4258 1282,4319 1329,4415 1344,4489 1397,4564 1411,4639 1516,4722 1644,4804 1696,4871 1838,4961 2040,5006 2190,5111 2324,5200 2474,5305 2616,5372 2706,5432 2766,5492 2856,5529 2931,5597 2998,5657 3050,5717 "/>
     <polygon class="fil28" points="279,4497 279,4437 328,4426 332,4384 365,4377 384,4328 429,4283 496,4294 545,4249 616,4272 654,4246 699,4264 751,4234 849,4260 860,4302 927,4287 995,4317 984,4362 1055,4373 1077,4429 1051,4459 1092,4493 1047,4542 1066,4572 1025,4624 965,4643 980,4684 905,4729 890,4759 826,4785 792,4838 748,4860 740,4909 706,4939 635,4965 628,5021 571,5029 542,5066 459,5081 433,5021 478,5014 489,4965 538,4961 556,4916 616,4924 665,4894 658,4842 710,4826 718,4782 759,4770 792,4714 841,4714 845,4673 897,4650 882,4605 935,4560 984,4560 961,4519 1002,4489 961,4455 980,4407 939,4366 890,4380 867,4339 819,4343 789,4283 751,4328 706,4306 680,4339 628,4313 594,4339 542,4287 515,4328 496,4373 440,4350 452,4414 403,4422 392,4459 350,4459 332,4482 316,4515 "/>
     <polygon class="fil24" points="202,3966 236,3951 266,3985 303,3959 345,3970 382,3951 423,3974 465,3963 502,3985 547,3985 585,4000 577,4030 551,4026 532,4056 487,4034 457,4060 420,4041 382,4023 375,4056 341,4045 315,4075 273,4056 243,4049 247,4086 206,4094 "/>
     <polygon class="fil28" points="1329,4340 1319,4446 1284,4512 1349,4558 1337,4654 1389,4690 1432,4671 1509,4774 1581,4768 1643,4841 1634,4881 1754,4895 1823,4969 1911,4948 1926,5015 2076,5023 2136,5128 2226,5143 2248,5195 2323,5165 2361,5248 2451,5263 2473,5345 2533,5345 2571,5420 2661,5398 2683,5525 2848,5563 2893,5638 2961,5630 2998,5728 3088,5728 3403,5720 3417,5642 3305,5653 3253,5593 3170,5570 3148,5458 3013,5488 2938,5375 2885,5285 2683,5165 2556,5128 2474,5043 2361,5013 2332,4946 2188,4903 2122,4834 1950,4782 1919,4716 1814,4693 1694,4596 1748,4415 1801,4385 1763,4332 1718,4340 1673,4355 1628,4302 1576,4302 1568,4355 1524,4340 1471,4310 1394,4356 "/>
     <polygon class="fil24" points="206,4731 236,4705 243,4671 277,4671 300,4603 352,4562 401,4566 412,4517 468,4495 536,4487 540,4442 599,4435 648,4405 723,4405 787,4401 802,4439 757,4491 757,4573 675,4588 675,4622 626,4641 629,4678 581,4701 573,4757 517,4776 513,4817 450,4828 438,4866 386,4903 345,4896 319,4948 255,4975 247,5012 199,5031 "/>
     <polygon class="fil29" points="204,4917 279,4842 339,4819 444,4714 542,4654 594,4613 624,4560 665,4538 729,4497 770,4426 808,4399 751,4392 695,4407 676,4450 624,4456 617,4499 568,4500 556,4549 496,4572 474,4624 392,4669 354,4729 279,4752 196,4819 "/>
     <polygon class="fil30" points="1641,4349 1754,4334 1829,4386 1881,4364 1926,4371 1986,4393 2038,4483 2128,4506 2181,4566 2226,4566 2293,4566 2368,4663 2451,4686 2488,4723 2548,4783 2668,4791 2765,4888 2765,4941 2841,4963 2931,5015 2961,5083 3005,5075 3065,5098 3088,5158 3163,5195 3230,5241 3238,5293 3305,5353 3380,5398 3403,5458 3470,5488 3545,5525 3537,5578 3620,5623 3672,5713 3582,5713 3448,5585 3275,5458 3155,5323 3043,5293 2931,5195 2788,5128 2691,5031 2443,4971 2368,4851 2241,4768 2143,4723 2031,4701 1926,4603 1814,4588 1724,4468 1634,4438 "/>
     <path class="fil31" d="M3403 1620c0,0 82,-434 157,-561 75,-127 158,-239 158,-239l0 59c0,0 -143,247 -180,374 -37,128 -60,300 -60,300l7 74 -82 -7z"/>
     <path class="fil32" d="M3748 812c0,0 119,-120 217,-127 97,-8 186,22 186,22l83 90 -105 -15 60 60 -135 7 -142 -29 -97 14c0,0 104,53 150,142 44,90 -68,330 -68,330l-15 -105 -60 8 23 -150 37 -75 -67 15 -23 -75 -37 0c0,0 15,195 0,255 -15,60 -67,112 -67,112l14 -105 -44 7 37 -179 -15 -105 68 -97z"/>
     <path class="fil3" d="M3822 790c0,0 0,-225 -60,-345 -60,-119 -194,-134 -194,-134l52 75 -22 59 75 90 52 135c0,0 -97,-67 -217,-23 -120,45 -165,157 -165,157l60 -37 23 45 105 -60c0,0 -98,142 -90,187 7,45 22,142 22,142l52 -75 -14 -127 44 60 53 -52 7 -67 60 -38 83 67 74 -59z"/>
     <polygon class="fil28" points="2087,3678 1937,3626 1860,3652 1814,3669 1743,3693 1668,3700 1578,3696 1537,3754 1469,3749 1480,3798 1428,3835 1469,3862 1466,3910 1514,3906 1539,3941 1570,3974 1652,3959 1702,3972 1758,4008 1821,3978 1974,3978 2446,3925 2334,3843 2394,3783 2514,3805 2693,3798 2813,3775 2701,3716 2468,3678 2319,3701 2177,3663 "/>
     <path class="fil31" d="M2146 1440c0,0 -22,-299 8,-389 30,-89 89,-187 89,-187l8 75c0,0 -75,127 -67,217 7,90 15,292 15,292l-53 -8z"/>
     <polygon class="fil31" points="747,984 837,1231 859,1381 799,1366 777,1179 717,1021 "/>
     <polygon class="fil16" points="5921,1321 5595,1246 5191,1291 5486,1306 5681,1381 "/>
     <polygon class="fil16" points="9142,1545 8798,1440 8484,1470 8304,1485 8424,1560 8709,1531 "/>
     <polygon class="fil16" points="7751,1291 7420,1201 7257,1261 7451,1291 "/>
     <polygon class="fil16" points="7874,4826 7807,4804 7784,4841 7807,4893 7874,4916 7911,4939 7956,4998 8001,4983 7994,4916 7949,4826 "/>
     <polygon class="fil16" points="8151,5036 8121,5081 8143,5126 8024,5118 7986,5193 7956,5290 8031,5357 8136,5335 8196,5387 8278,5455 8375,5470 8457,5417 8390,5342 8315,5298 8293,5215 8226,5170 8203,5096 "/>
     <polygon class="fil33" points="8701,4849 8671,4751 8618,4744 8566,4751 8514,4692 8439,4557 8274,4489 8140,4475 8094,4415 7997,4347 7863,4325 7840,4385 7885,4452 7893,4534 7878,4624 7937,4692 8035,4699 8080,4684 8140,4706 8140,4766 8162,4819 8244,4834 8297,4819 8371,4826 8461,4886 8514,4939 8514,4998 8491,5051 8514,5133 8581,5155 8701,5193 8716,5238 8731,5305 8753,5365 8820,5447 8873,5447 8910,5402 8918,5305 8873,5223 8835,5193 8813,5148 8828,5066 8783,4998 8716,5006 8641,4998 8618,4909 8663,4923 "/>
     <path class="fil34" d="M1331 1803c127,-14 -210,165 -120,255 90,89 -524,-60 -374,135 149,194 942,194 972,329 30,134 -209,74 -104,149 104,75 538,225 329,195 -209,-30 -673,-60 -958,-135 -284,-75 434,-30 30,-239 -404,-210 -748,-329 -643,-419 105,-90 539,0 539,-90 0,-90 74,-150 329,-180z"/>
     <path class="fil35" d="M8589 1830c0,0 -389,-165 -479,-165 -89,0 -583,-30 -763,15 -179,45 -628,-15 -628,-15l359 120c0,0 479,15 643,0 165,-15 599,135 674,120 74,-15 194,-75 194,-75z"/>
     <polygon class="fil36" points="3995,1456 4234,1516 4384,1576 4354,1651 4294,1815 4100,1845 4010,1890 3651,1875 3531,1935 3232,1860 3471,1830 3785,1815 4070,1785 4220,1680 4264,1591 4070,1561 "/>
     <path class="fil37" d="M4826 4730c0,0 247,59 441,276 194,218 150,360 -150,449 -299,90 -688,-22 -845,-60 -157,-37 -180,-127 -52,-142 127,-15 583,105 785,-37 202,-142 165,-269 22,-337 -142,-67 -419,-164 -359,-179 60,-15 158,30 158,30z"/>
     <polygon class="fil31" points="1331,1362 1331,1153 1376,943 1406,1048 1368,1205 1421,1392 "/>
     <polygon class="fil24" points="1683,3755 1784,3821 1887,3842 1970,3840 2089,3856 2187,3854 2263,3829 2591,3850 2775,3907 2889,3892 2995,3869 3091,3890 3224,3921 3335,3950 3442,3920 3633,3977 3738,3984 3827,3990 3978,3977 4136,3965 3997,3911 3815,3944 3696,3936 3629,3917 3527,3873 3453,3861 3349,3854 3222,3846 3111,3809 3009,3772 2916,3811 2799,3774 2745,3793 2685,3804 2613,3754 2553,3758 2454,3774 2389,3732 2272,3695 2224,3744 2128,3708 2067,3727 2033,3785 1915,3762 1880,3722 1806,3710 1746,3706 "/>
     <polygon class="fil24" points="3658,5736 3613,5646 3545,5624 3508,5571 3448,5534 3388,5519 3321,5437 3246,5392 3201,5324 3134,5272 3052,5265 2977,5182 2909,5167 2857,5108 2790,5048 2742,5027 2670,4995 2627,4933 2578,4948 2578,4899 2522,4881 2481,4813 2421,4798 2387,4746 2327,4723 2312,4682 2249,4686 2211,4633 2151,4626 2106,4573 2046,4600 2039,4543 1949,4502 1949,4461 1891,4437 1859,4379 1795,4397 1769,4341 1698,4330 1645,4307 1570,4299 1630,4367 1607,4449 1667,4501 1772,4509 1809,4561 1914,4576 1952,4636 2026,4666 2056,4696 2101,4778 2191,4778 2258,4838 2333,4838 2349,4915 2409,4915 2505,5018 2580,5040 2707,5055 2752,5138 2805,5138 2865,5212 2939,5265 3029,5317 3059,5369 3126,5354 3186,5392 3201,5467 3284,5504 3351,5564 3418,5631 3493,5646 3553,5728 "/>
     <polygon class="fil38" points="2783,1044 2910,917 3022,880 3112,895 3044,939 2985,955 3007,999 2925,1015 2865,1022 2828,1067 "/>
     <polygon class="fil39" points="3194,1269 3179,1164 3082,1074 3104,1142 3044,1164 3127,1216 3104,1254 "/>
     <polygon class="fil40" points="2835,1291 2835,1059 2753,865 2685,782 2723,895 2648,910 2723,969 2671,999 2678,1052 2693,1119 2760,1112 2768,1179 2701,1179 2753,1239 2753,1276 2790,1351 "/>
     <path class="fil3" d="M448 752c0,0 -7,-149 -45,-239 -37,-90 -105,-150 -105,-150l0 53 -44 30 7 82 90 38 -60 14 23 68 59 22 23 60 0 90 52 22 0 -90z"/>
     <polygon class="fil35" points="3628,1980 3202,2017 2992,2017 2925,2055 2835,2069 2431,2025 2259,2025 2117,2047 2004,2010 1892,1920 2042,1965 2064,1920 2162,1927 2514,1972 2484,1912 2663,1920 2798,1935 2798,1882 2880,1868 2977,1860 3187,1942 3179,1868 3314,1927 3501,1942 "/>
     <polygon class="fil41" points="1907,3981 1877,4004 1892,4026 1926,4008 "/>
     <polygon class="fil41" points="2046,3962 2035,3989 2057,4004 2076,3989 "/>
     <polygon class="fil41" points="2125,3944 2102,3948 2110,3966 2132,3974 2147,3955 "/>
     <polygon class="fil41" points="2185,3970 2177,3992 2192,4011 2218,4004 2218,3974 "/>
     <polygon class="fil41" points="2290,3966 2278,4000 2301,4015 2320,4011 2323,3985 "/>
     <polygon class="fil41" points="2399,4000 2387,4034 2410,4049 2429,4045 2432,4019 "/>
     <polygon class="fil41" points="2459,3970 2447,4004 2470,4019 2488,4015 2492,3989 "/>
     <polygon class="fil41" points="2522,3997 2511,4030 2534,4045 2552,4042 2556,4015 "/>
     <polygon class="fil41" points="2586,4004 2575,4038 2597,4053 2616,4049 2620,4023 "/>
     <polygon class="fil41" points="2724,3992 2703,4012 2725,4027 2744,4023 2747,3997 "/>
     <polygon class="fil41" points="2796,3978 2774,3997 2796,4012 2815,4009 2819,3982 "/>
     <polygon class="fil41" points="2856,4008 2834,4027 2857,4042 2875,4039 2879,4012 "/>
     <polygon class="fil41" points="2953,3979 2936,3981 2931,4000 2948,4015 2963,4005 "/>
     <polygon class="fil41" points="2997,4015 2980,4025 2982,4040 2997,4045 "/>
     <polygon class="fil41" points="3065,3998 3048,4000 3053,4022 3070,4027 3080,4015 "/>
     <polygon class="fil41" points="3187,4047 3170,4054 3173,4071 3185,4078 3197,4069 "/>
     <polygon class="fil41" points="3231,4020 3209,4027 3219,4049 3236,4052 3243,4035 "/>
     <polygon class="fil41" points="3275,4030 3262,4037 3265,4057 3282,4062 3297,4047 "/>
     <polygon class="fil41" points="3506,4054 3496,4066 3499,4078 3518,4076 3521,4062 "/>
     <polygon class="fil41" points="3457,4020 3440,4013 3428,4022 3433,4040 3453,4037 "/>
     <path class="fil41" d="M3596 4045l-17 -8 -10 15 8 14 14 0c0,0 13,-18 5,-21z"/>
     <polygon class="fil41" points="3713,4018 3684,4020 3686,4045 3701,4052 3713,4049 3718,4030 "/>
     <polygon class="fil41" points="3801,4064 3784,4062 3781,4076 3784,4088 3798,4098 3813,4093 3818,4074 "/>
     <polygon class="fil41" points="3886,4022 3871,4020 3862,4032 3866,4047 3884,4049 3896,4035 "/>
     <polygon class="fil41" points="3925,4047 3913,4054 3915,4069 3927,4078 3942,4074 3947,4059 3942,4047 "/>
     <polygon class="fil41" points="1746,3607 1716,3629 1731,3652 1765,3633 "/>
     <polygon class="fil41" points="1885,3588 1874,3614 1896,3629 1915,3614 "/>
     <polygon class="fil41" points="1964,3569 1941,3573 1949,3592 1971,3599 1986,3580 "/>
     <polygon class="fil41" points="2024,3596 2016,3618 2031,3637 2057,3629 2057,3599 "/>
     <polygon class="fil41" points="2129,3592 2117,3625 2140,3640 2159,3637 2162,3610 "/>
     <polygon class="fil41" points="2237,3625 2226,3659 2249,3674 2267,3671 2271,3644 "/>
     <polygon class="fil41" points="2298,3596 2286,3629 2309,3645 2328,3641 2331,3615 "/>
     <polygon class="fil41" points="2361,3622 2350,3656 2373,3671 2391,3667 2395,3641 "/>
     <polygon class="fil41" points="2395,3585 2384,3618 2407,3634 2425,3630 2429,3604 "/>
     <polygon class="fil41" points="2563,3618 2542,3637 2564,3652 2583,3649 2587,3622 "/>
     <polygon class="fil41" points="2635,3603 2613,3623 2636,3637 2654,3634 2658,3608 "/>
     <polygon class="fil41" points="2769,3700 2748,3718 2771,3733 2789,3730 2793,3703 "/>
     <polygon class="fil41" points="2835,3688 2818,3691 2813,3711 2830,3725 2845,3715 "/>
     <polygon class="fil41" points="2931,3726 2914,3729 2909,3748 2926,3763 2941,3753 "/>
     <polygon class="fil41" points="3008,3726 2991,3729 2986,3748 3003,3763 3018,3753 "/>
     <polygon class="fil41" points="3085,3726 3068,3729 3063,3748 3080,3763 3095,3753 "/>
     <polygon class="fil41" points="3167,3775 3153,3772 3146,3788 3163,3803 3177,3793 "/>
     <polygon class="fil41" points="3218,3788 3201,3791 3197,3811 3213,3825 3228,3815 "/>
     <polygon class="fil41" points="3326,3794 3307,3786 3302,3805 3311,3818 3333,3810 "/>
     <polygon class="fil41" points="3509,3793 3492,3795 3487,3815 3504,3829 3519,3820 "/>
     <polygon class="fil41" points="3464,3798 3447,3801 3442,3821 3459,3835 3474,3825 "/>
     <polygon class="fil41" points="3607,3848 3599,3848 3590,3862 3602,3873 3617,3863 "/>
     <polygon class="fil41" points="1893,4277 1863,4300 1877,4323 1911,4304 "/>
     <polygon class="fil41" points="2054,4304 2039,4319 2061,4334 2080,4319 "/>
     <polygon class="fil41" points="2170,4384 2147,4388 2155,4407 2177,4414 2192,4396 "/>
     <polygon class="fil41" points="2219,4412 2211,4435 2226,4453 2252,4446 2252,4416 "/>
     <polygon class="fil41" points="2303,4390 2292,4423 2314,4439 2333,4435 2336,4409 "/>
     <polygon class="fil41" points="2395,4493 2384,4527 2406,4542 2425,4538 2429,4512 "/>
     <polygon class="fil41" points="2464,4572 2449,4591 2472,4606 2491,4602 2494,4576 "/>
     <polygon class="fil41" points="2507,4602 2491,4621 2513,4636 2532,4632 2536,4606 "/>
     <polygon class="fil41" points="2629,4686 2617,4713 2639,4728 2658,4724 2661,4698 "/>
     <polygon class="fil41" points="2758,4749 2751,4766 2759,4784 2778,4780 2782,4754 "/>
     <polygon class="fil41" points="2790,4783 2778,4800 2791,4818 2810,4814 2813,4788 "/>
     <polygon class="fil41" points="2852,4872 2842,4888 2853,4906 2872,4903 2875,4876 "/>
     <polygon class="fil42" points="1514,4547 1484,4570 1499,4592 1533,4574 "/>
     <polygon class="fil42" points="1522,4617 1507,4632 1527,4654 1548,4632 "/>
     <polygon class="fil42" points="1656,4658 1628,4664 1636,4682 1658,4690 1674,4671 "/>
     <polygon class="fil42" points="1683,4716 1675,4739 1690,4757 1717,4750 1717,4720 "/>
     <polygon class="fil42" points="1840,4802 1824,4827 1846,4842 1864,4838 1868,4812 "/>
     <polygon class="fil42" points="1915,4828 1899,4848 1921,4862 1940,4858 1943,4832 "/>
     <polygon class="fil42" points="2046,4935 2032,4954 2054,4969 2073,4966 2077,4939 "/>
     <polygon class="fil42" points="2097,4967 2081,4987 2103,5001 2122,4997 2125,4971 "/>
     <polygon class="fil42" points="2159,4969 2146,4996 2169,5011 2188,5007 2191,4981 "/>
     <polygon class="fil42" points="2279,5061 2271,5078 2280,5096 2298,5092 2302,5066 "/>
     <polygon class="fil42" points="2384,5072 2372,5089 2385,5107 2403,5103 2407,5077 "/>
     <polygon class="fil42" points="2474,5142 2464,5158 2475,5176 2493,5172 2497,5146 "/>
     <polygon class="fil21" points="1366,3717 1321,3770 1325,3845 1306,3905 1229,3976 1195,3942 1173,3916 1171,3867 1130,3882 1073,3852 1137,3833 1152,3803 1197,3811 1220,3755 1261,3769 1280,3713 1235,3665 1269,3616 1227,3549 1295,3563 1306,3657 1351,3665 "/>
     <polygon class="fil28" points="1214,3507 1177,3455 1113,3466 1087,3440 1064,3387 997,3413 948,3432 907,3357 869,3376 836,3406 802,3354 764,3346 734,3383 757,3425 806,3436 862,3440 888,3470 937,3466 974,3473 1034,3473 1064,3496 1087,3522 1143,3537 "/>
     <polygon class="fil28" points="603,3324 558,3294 513,3339 449,3342 379,3297 341,3335 303,3331 255,3309 225,3335 232,3369 307,3380 349,3395 386,3376 431,3399 476,3369 525,3376 573,3387 611,3361 648,3361 "/>
     <polygon class="fil41" points="304,3393 274,3416 289,3438 322,3419 "/>
     <polygon class="fil41" points="425,3425 409,3442 431,3457 450,3442 "/>
     <polygon class="fil41" points="518,3412 500,3417 502,3434 525,3442 540,3423 "/>
     <polygon class="fil41" points="564,3412 557,3434 572,3453 598,3446 598,3416 "/>
     <polygon class="fil41" points="682,3468 673,3496 695,3511 714,3508 718,3481 "/>
     <polygon class="fil41" points="749,3459 744,3479 759,3495 778,3491 782,3465 "/>
     <polygon class="fil41" points="845,3519 831,3545 853,3560 872,3557 876,3530 "/>
     <polygon class="fil41" points="905,3530 889,3555 911,3570 930,3566 934,3540 "/>
     <polygon class="fil41" points="984,3513 966,3538 988,3553 1007,3549 1011,3523 "/>
     <polygon class="fil41" points="1100,3560 1089,3573 1101,3594 1120,3591 1124,3564 "/>
     <polygon class="fil41" points="1132,3616 1119,3633 1133,3651 1152,3647 1155,3621 "/>
     <polygon class="fil41" points="270,3603 252,3618 266,3641 285,3622 "/>
     <polygon class="fil41" points="305,3646 289,3663 311,3678 330,3663 "/>
     <polygon class="fil41" points="373,3648 352,3661 355,3678 377,3686 392,3667 "/>
     <polygon class="fil41" points="534,3641 527,3663 542,3682 568,3675 568,3645 "/>
     <polygon class="fil41" points="628,3691 611,3716 634,3731 653,3727 656,3701 "/>
     <polygon class="fil41" points="774,3764 768,3785 784,3800 803,3796 806,3770 "/>
     <polygon class="fil41" points="837,3742 823,3768 846,3784 865,3780 868,3754 "/>
     <polygon class="fil41" points="995,3800 979,3825 1002,3840 1020,3836 1024,3810 "/>
     <polygon class="fil41" points="266,5046 236,5068 251,5091 285,5072 "/>
     <polygon class="fil41" points="495,4838 484,4864 506,4879 525,4864 "/>
     <polygon class="fil41" points="574,4819 551,4823 558,4842 581,4849 596,4830 "/>
     <polygon class="fil41" points="244,4594 236,4616 251,4635 278,4628 278,4598 "/>
     <polygon class="fil41" points="257,4527 249,4551 262,4570 281,4566 285,4540 "/>
     <polygon class="fil41" points="354,4491 343,4510 356,4527 375,4523 379,4497 "/>
     <polygon class="fil41" points="407,4459 388,4486 411,4501 430,4497 433,4471 "/>
     <polygon class="fil41" points="513,4375 497,4400 515,4416 538,4411 542,4385 "/>
     <polygon class="fil21" points="1707,4440 1673,4384 1625,4350 1579,4306 1505,4287 1463,4220 1381,4223 1347,4190 1291,4212 1257,4167 1220,4178 1160,4167 1115,4212 1044,4208 980,4257 894,4340 822,4358 774,4444 736,4422 781,4373 792,4332 875,4313 885,4294 909,4253 950,4208 954,4163 1021,4144 1092,4148 1089,4107 999,4081 905,4088 789,4043 740,4073 646,4028 598,4032 553,3995 628,3991 699,4021 766,3991 852,4028 942,4010 1014,4058 1055,4017 1133,4040 1145,3983 1175,3987 1182,3908 1149,3811 1089,3788 1055,3729 987,3691 1040,3695 1096,3725 1130,3725 1163,3777 1209,3811 1212,3867 1250,3890 1239,3953 1265,3987 1272,4036 1306,3995 1399,3976 1422,3901 1482,3882 1527,3834 1572,3822 1606,3781 1655,3766 1718,3740 1763,3766 1726,3796 1696,3841 1609,3837 1568,3897 1497,3916 1478,3991 1426,4010 1373,4054 1336,4066 1325,4092 1280,4103 1321,4133 1373,4130 1399,4152 1471,4152 1535,4182 1535,4238 1621,4257 1651,4294 1711,4310 1722,4380 1748,4422 "/>
     <polygon class="fil41" points="572,4338 561,4372 583,4387 602,4383 606,4357 "/>
     <polygon class="fil41" points="652,4697 641,4724 664,4739 682,4724 "/>
     <polygon class="fil41" points="731,4679 709,4682 716,4701 739,4709 754,4690 "/>
     <polygon class="fil41" points="740,4630 726,4649 748,4664 767,4649 "/>
     <polygon class="fil41" points="847,4506 825,4510 833,4529 855,4536 870,4518 "/>
     <polygon class="fil41" points="896,4433 881,4439 881,4456 904,4463 919,4445 "/>
     <polygon class="fil41" points="400,4965 388,4973 385,4988 407,4995 422,4977 "/>
     <polygon class="fil41" points="388,5014 377,5021 374,5037 396,5044 411,5026 "/>
     <polygon class="fil41" points="256,4180 244,4191 266,4207 285,4191 "/>
     <polygon class="fil41" points="336,4154 324,4160 321,4177 343,4184 358,4165 "/>
     <polygon class="fil41" points="423,4120 409,4139 431,4154 450,4139 "/>
     <polygon class="fil41" points="643,4066 633,4066 628,4089 651,4096 666,4077 "/>
     <polygon class="fil41" points="647,4015 635,4028 654,4050 673,4034 "/>
     <polygon class="fil41" points="538,3933 521,3937 524,3957 546,3965 561,3946 "/>
     <polygon class="fil41" points="473,3909 457,3914 458,3931 480,3939 496,3920 "/>
     <polygon class="fil41" points="422,3923 407,3933 407,3950 430,3958 445,3939 "/>
     <polygon class="fil41" points="311,3890 297,3900 297,3917 320,3924 335,3906 "/>
     <polygon class="fil41" points="257,3899 242,3909 243,3926 266,3934 268,3908 "/>
     <polygon class="fil43" points="0,225 10017,225 10017,0 0,0 "/>
     <polygon class="fil43" points="0,5850 10017,5850 10017,5613 0,5613 "/>
     <polygon class="fil43" points="0,5850 217,5850 217,0 0,0 "/>
     <polygon class="fil43" points="9800,5850 10017,5850 10017,0 9800,0 "/>
    </g>
   </g>
  </g>
 </g>
</svg>
