<svg width="142" height="130" viewBox="0 0 142 130" fill="none" xmlns="http://www.w3.org/2000/svg">
<path d="M138.093 49.2565C138.093 37.5103 129.843 27.3818 118.117 23.7773C117.41 10.5569 105.439 0 90.8254 0C83.138 0 76.0416 2.9184 71 7.78553H70.9995C65.9582 2.91865 58.8615 0 51.1747 0C36.5606 0 24.5896 10.5559 23.8824 23.7771C12.1582 27.3823 3.90698 37.5108 3.90698 49.2565C3.90698 55.3208 6.11242 61.1 10.0995 65.7757C6.89897 70.1462 5.1836 75.2784 5.1836 80.6815C5.1836 91.9778 12.7581 101.792 23.8613 105.732C24.2951 119.182 36.3806 130 51.1747 130C58.8613 130 65.9576 127.081 70.9995 122.215L71 122.215C76.0416 127.082 83.138 130 90.8254 130C105.619 130 117.705 119.182 118.138 105.732C129.242 101.792 136.817 91.9773 136.817 80.6813C136.817 75.2776 135.102 70.1457 131.901 65.7754C135.888 61.1 138.093 55.3206 138.093 49.2565Z" fill="#DC85A6"/>
<path d="M138.093 49.2565C138.093 37.5103 129.843 27.3818 118.117 23.7773C117.41 10.5569 105.439 0 90.8253 0C83.1379 0 76.0415 2.9184 70.9999 7.78553H70.9994V122.216L70.9999 122.215C76.0415 127.082 83.1379 130 90.8253 130C105.619 130 117.705 119.182 118.138 105.732C129.242 101.792 136.817 91.9773 136.817 80.6813C136.817 75.2776 135.102 70.1457 131.901 65.7754C135.888 61.1 138.093 55.3206 138.093 49.2565Z" fill="#CE5C82"/>
<path d="M127.695 61.2059C122.213 56.4279 115.022 53.7966 107.451 53.7966H96.8188C93.2538 53.7966 90.3641 56.4423 90.3641 59.7058C90.3641 62.9687 93.2535 65.6149 96.8188 65.6149H107.451C111.694 65.6149 115.723 67.0886 118.794 69.7656C120.044 70.8548 121.645 71.3949 123.244 71.3949C124.949 71.3949 126.652 70.7799 127.92 69.5599C130.378 67.1958 130.277 63.4557 127.695 61.2059Z" fill="#DC85A6"/>
<path d="M45.1823 53.7966H34.5501C26.9802 53.7966 19.792 56.4266 14.3095 61.2018C11.7269 63.4517 11.6254 67.1917 14.0824 69.5561C15.3512 70.7774 17.0536 71.3918 18.7598 71.3918C20.3578 71.3918 21.9592 70.8518 23.2078 69.7638C26.2797 67.0886 30.3078 65.6147 34.5501 65.6147H45.1823C48.7465 65.6147 51.6369 62.9685 51.6369 59.7055C51.6367 56.4423 48.7465 53.7966 45.1823 53.7966Z" fill="#CE5C82"/>
<path d="M31.8526 87.295C27.974 90.8464 25.3775 95.3207 24.3435 100.236C23.6696 103.441 25.961 106.539 29.4616 107.156C29.8738 107.229 30.2842 107.264 30.6892 107.264C33.7216 107.264 36.426 105.298 37.0201 102.471C37.5648 99.8839 38.9338 97.5259 40.9811 95.6518C43.5013 93.3441 43.5013 89.6027 40.9811 87.2947C38.4603 84.9872 34.3734 84.9872 31.8526 87.295Z" fill="#CE5C82"/>
<path d="M110.147 87.2945C107.627 84.9872 103.54 84.9875 101.019 87.2952C98.4991 89.603 98.4991 93.344 101.02 95.6523C103.067 97.5254 104.436 99.8836 104.98 102.471C105.575 105.298 108.279 107.263 111.311 107.263C111.715 107.263 112.127 107.228 112.539 107.156C116.039 106.539 118.331 103.441 117.656 100.237C116.622 95.3194 114.025 90.8451 110.147 87.2945Z" fill="#DC85A6"/>
</svg>
